<?xml version="1.0" encoding="utf-8"?>
<!-- Generator: Adobe Illustrator 26.0.2, SVG Export Plug-In . SVG Version: 6.00 Build 0)  -->
<svg version="1.1" id="圖層_1" xmlns="http://www.w3.org/2000/svg" xmlns:xlink="http://www.w3.org/1999/xlink" x="0px" y="0px"
	 viewBox="0 0 122.3 122.3" style="enable-background:new 0 0 122.3 122.3;" xml:space="preserve">
<style type="text/css">
	.st0{fill:none;stroke:#E60012;stroke-width:3;stroke-miterlimit:10;}
	.st1{fill:#E60012;}
	.st2{fill:#FFFFFF;}
	.st3{fill:none;stroke:#E60012;stroke-width:5;stroke-miterlimit:10;}
</style>
<g>
	<path class="st0" d="M120.8,61.1c0,32.9-26.7,59.6-59.6,59.6S1.5,94.1,1.5,61.1S28.2,1.5,61.1,1.5S120.8,28.2,120.8,61.1z"/>
	<path class="st1" d="M117.4,61.1c0,31.1-25.2,56.3-56.3,56.3S4.9,92.2,4.9,61.1S30.1,4.9,61.1,4.9C92.2,4.9,117.4,30,117.4,61.1z"
		/>
	<g>
		<path class="st2" d="M65.1,50.8c2.2,0.5,4.3,1.2,6.2,2.1C69.3,51.9,67.2,51.2,65.1,50.8C65.1,50.8,65.1,50.8,65.1,50.8z"/>
		<path class="st2" d="M48,99.1c-3.2,0-5.8,2.6-5.8,5.8c0,3.2,2.6,5.8,5.8,5.8s5.8-2.6,5.8-5.8C53.8,101.7,51.2,99.1,48,99.1z"/>
		<path class="st2" d="M97.7,66.4c-0.5,0-1.1,0-1.6-0.1c-7.2-0.7-12.8-5-18.3-9.5c-2-1.6-4.2-3-6.5-4c-2-0.9-4.1-1.6-6.3-2.1
			c-14.8-3-29.2,6.5-32.2,21.3c-0.4,1.7-0.5,3.5-0.6,5.2c0,2.5,0.3,4.9,0.9,7.2c0.4,1.5,0.9,3,1.5,4.4c0.6,1.3,1.2,2.5,2,3.6
			c1.5,2.4,3.4,4.5,5.7,6.3c1.5-1.4,3.5-2.2,5.7-2.2c4.5,0,8.3,3.7,8.3,8.2c2.2,0.3,4.4,0.3,6.5,0c0.1-4.5,3.8-8.2,8.3-8.2
			c2.2,0,4.2,0.9,5.7,2.3c1.6-1.3,3.1-2.8,4.4-4.5c0.2-0.3,0.4-0.6,0.6-0.9c2.5-3.7,3.9-7.9,4.9-12.3c0.3-1.3,0.5-2.6,0.7-3.9
			c-0.1,0-0.1,0-0.2,0c-2.5,0.4-5.2,0.3-7.9-0.2c-1.9-0.4-3.8-1-5.8-1.8c-0.8-0.3-1.6-0.7-2.3-1.1c0,1.9-0.2,3.7-0.6,5.4
			c-1.3,5.3-5.5,8.7-10.8,8.9c-4.3,0.1-8.5-2.7-10.2-6.7c-1.8-4.3-0.8-9.1,2.6-12.4l0,0c3.2-3,8.1-3.7,12-2c3.6,1.6,6.7,4,10.3,5.5
			c4.1,1.8,8.4,2.5,12.3,1.9c4.4-0.7,8.5-3.1,11.8-7.6l0,0c0.2-0.2,0.3-0.5,0.4-0.8C98.6,66.4,98.1,66.4,97.7,66.4z"/>
		<path class="st2" d="M71.2,99.1c-3.2,0-5.8,2.6-5.8,5.8c0,3.2,2.6,5.8,5.8,5.8s5.8-2.6,5.8-5.8C76.9,101.7,74.4,99.1,71.2,99.1z"
			/>
		<path class="st2" d="M105.8,35.3c0-0.5,0-1-0.1-1.4c-0.2-2.3-0.9-4.6-2.1-6.6c-1.1-2-2.7-3.7-4.5-5.1c-1.9-1.4-4-2.4-6.3-2.9
			c-2.9-0.6-6-0.6-8.8,0.2c-2.2,0.6-4.3,1.7-6.2,3.1c-1.8,1.4-3.4,3.2-4.5,5.3c-0.8,1.5-1.5,3.2-1.8,4.9c0,0,0,0.1,0,0.1
			C70.4,38.7,71,46.5,71.3,50c0,0,0,0.1,0.1,0.1c0.3,0.1,0.7,0.3,1,0.4c2.5,1.2,4.9,2.6,7,4.3c2.8,2.2,5.6,4.5,8.7,6.2
			c0.1,0,0.2,0,0.2-0.1c-0.1-2.5-0.2-5-0.3-7.5c0-0.6,0-1.2-0.1-1.7c0-0.6,0-1.1-0.1-1.6c0-0.1,0-0.2,0-0.3
			c-0.1-2.1-0.1-4.2-0.2-6.3c0-0.3,0-0.5,0-0.8c0-1.8-0.1-3.7,0-5.5c0-0.4,0-0.8,0.1-1.2c0,0,0,0,0,0c0.1-0.6,0.1-1.2,0.2-1.7
			c0-0.1,0-0.2,0.1-0.3c1-3.9,4.6-6.7,8.8-6.7c0,0,0,0,0.1,0c0.4,0,0.8,0,1.1,0.1c0.4,0.1,0.7,0.1,1.1,0.2c0.4,0.1,0.7,0.2,1.1,0.4
			c0.3,0.1,0.7,0.3,1,0.5c0.3,0.2,0.6,0.4,0.9,0.6c0.3,0.2,0.6,0.4,0.8,0.7c0.3,0.2,0.5,0.5,0.8,0.8c0.2,0.3,0.5,0.6,0.7,0.9
			c0.2,0.3,0.4,0.6,0.6,1c0.2,0.3,0.3,0.7,0.4,1c0.1,0.4,0.2,0.7,0.3,1.1c0.1,0.4,0.1,0.7,0.2,1.1c0,0.1,0,0.3,0,0.4
			c0,0.1,0.1,0.1,0.1,0C105.8,35.7,105.8,35.4,105.8,35.3z"/>
	</g>
	<circle class="st3" cx="60.8" cy="60.2" r="57.5"/>
</g>
</svg>
