<?xml version="1.0" encoding="utf-8"?>
<!-- Generator: Adobe Illustrator 23.1.0, SVG Export Plug-In . SVG Version: 6.00 Build 0)  -->
<svg version="1.1" id="圖層_1" xmlns="http://www.w3.org/2000/svg" xmlns:xlink="http://www.w3.org/1999/xlink" x="0px" y="0px"
	 viewBox="0 0 283.5 283.5" style="enable-background:new 0 0 283.5 283.5;" xml:space="preserve">
<style type="text/css">
	.st0{fill:#FFFFFF;}
</style>
<g>
	<path class="st0" d="M130.4,101.6c6.4,1.3,12.4,3.3,18,6c-5.9-2.7-12-4.7-18.2-6C130.3,101.6,130.3,101.6,130.4,101.6z"/>
	<path class="st0" d="M80.9,240.4c-9.2,0-16.7,7.4-16.7,16.6c0,9.1,7.5,16.6,16.7,16.6s16.7-7.4,16.7-16.6
		C97.6,247.9,90.1,240.4,80.9,240.4z"/>
	<path class="st0" d="M224.5,146.6c-1.6,0-3.1-0.1-4.6-0.3c-20.9-2-36.8-14.4-52.8-27.2c-5.8-4.7-12.1-8.5-18.7-11.5
		c-5.9-2.7-12-4.7-18.2-6C87.5,93,45.8,120.4,37,162.8c-1,5-1.5,10-1.6,14.9c-0.1,7.1,0.8,14,2.5,20.7c1.1,4.3,2.6,8.5,4.4,12.6
		c1.6,3.6,3.6,7.1,5.8,10.3c4.5,6.8,10,13,16.4,18.2c4.3-4,10.1-6.4,16.4-6.4c13.1,0,23.8,10.5,24.1,23.5c6.4,0.8,12.7,0.8,18.9,0
		c0.2-13,10.9-23.5,24.1-23.5c6.4,0,12.2,2.5,16.5,6.5c4.7-3.8,8.9-8.1,12.7-12.9c0.6-0.8,1.2-1.7,1.8-2.6
		c7.2-10.7,11.3-22.6,14-35.2c0.8-3.7,1.4-7.4,2-11.2c-0.2,0-0.4,0.1-0.6,0.1c-7.3,1.1-15,0.9-22.9-0.7c-5.4-1.1-11-2.9-16.7-5.3
		c-2.3-1-4.6-2.1-6.8-3.2c-0.1,5.5-0.5,10.6-1.8,15.6c-3.8,15.2-15.8,25.1-31.2,25.5c-12.4,0.3-24.7-7.7-29.6-19.3
		c-5.2-12.3-2.2-26.2,7.6-35.5c0,0,0,0,0,0c9.1-8.6,23.4-10.7,34.7-5.8c10.4,4.6,19.5,11.4,29.9,15.9c12,5.1,24.1,7.2,35.5,5.5
		c12.7-2,24.5-8.8,34.2-21.8l0,0c0.5-0.6,0.8-1.3,1.2-2.2C227.2,146.6,225.8,146.6,224.5,146.6z"/>
	<path class="st0" d="M147.9,240.4c-9.2,0-16.7,7.4-16.7,16.6s7.5,16.6,16.7,16.6s16.7-7.4,16.7-16.6S157.1,240.4,147.9,240.4z"/>
	<path class="st0" d="M248,57.3c0-1.4-0.1-2.8-0.2-4.1c-0.6-6.7-2.6-13.2-6-19.1c-3.3-5.7-7.7-10.8-13-14.7
		c-5.4-4-11.6-6.8-18.2-8.2c-8.2-1.9-17.2-1.6-25.4,0.6c-6.4,1.7-12.5,4.7-17.8,8.8c-5.3,4.1-9.8,9.3-13,15.1
		c-2.4,4.4-4.2,9.1-5.2,14c0,0.1,0,0.2-0.1,0.3c-3.4,17.1-1.8,39.4-0.8,49.4c0,0.1,0.1,0.2,0.2,0.3c1,0.4,1.9,0.8,2.8,1.2
		c7.3,3.3,14.1,7.5,20.3,12.5c8,6.4,16.1,12.9,25,17.8c0.2,0.1,0.5-0.1,0.5-0.3c-0.4-7.1-0.7-14.3-1-21.4c-0.1-1.7-0.1-3.3-0.2-5
		c-0.1-1.6-0.1-3.2-0.2-4.7c0-0.3,0-0.6,0-0.9c-0.2-6.1-0.4-12.1-0.5-18.2c0-0.8,0-1.5-0.1-2.3c-0.1-5.2-0.4-10.6-0.1-15.9
		c0.1-1.2,0.1-2.3,0.2-3.5c0,0,0-0.1,0-0.1c0.2-1.7,0.4-3.3,0.7-4.9c0.1-0.3,0.1-0.7,0.2-1c3-11.1,13.2-19.3,25.3-19.3
		c0.1,0,0.1,0,0.2,0c1.1,0,2.2,0.1,3.3,0.2c1.1,0.1,2.2,0.4,3.2,0.6c1,0.3,2.1,0.6,3.1,1c1,0.4,1.9,0.8,2.9,1.4
		c0.9,0.5,1.8,1.1,2.7,1.7c0.9,0.6,1.7,1.3,2.4,2c0.8,0.7,1.5,1.5,2.2,2.3c0.7,0.8,1.3,1.6,1.9,2.5c0.6,0.9,1.1,1.8,1.6,2.7
		c0.5,0.9,0.9,1.9,1.3,2.9c0.4,1,0.7,2,0.9,3.1c0.2,1.1,0.4,2.1,0.5,3.2c0,0.4,0.1,0.8,0.1,1.1c0,0.3,0.2,0.3,0.2,0
		C248,58.4,248,57.4,248,57.3z"/>
</g>
</svg>
